<svg xmlns="http://www.w3.org/2000/svg" xmlns:xlink="http://www.w3.org/1999/xlink" viewBox="0 0 1546 423"><defs><style>.cls-1{fill:#333;}.cls-2,.cls-5,.cls-7{opacity:0.3;}.cls-2,.cls-5,.cls-6{isolation:isolate;}.cls-3{fill:url(#linear-gradient);}.cls-4{fill:url(#linear-gradient-2);}.cls-11,.cls-5,.cls-6{fill:#fff;}.cls-6{opacity:0.5;}.cls-8{fill:url(#linear-gradient-3);}.cls-9{mask:url(#mask);}.cls-10{opacity:0.75;}</style><linearGradient id="linear-gradient" x1="820.84" y1="433.15" x2="884" y2="370" gradientTransform="matrix(0.91, -0.41, -0.41, -0.91, 492.16, 930.74)" gradientUnits="userSpaceOnUse"><stop offset="0" stop-color="#919191"/><stop offset="1" stop-color="#fff"/></linearGradient><linearGradient id="linear-gradient-2" x1="797.09" y1="384.97" x2="835.33" y2="346.74" gradientTransform="matrix(0.91, -0.41, -0.41, -0.91, 492.16, 930.74)" gradientUnits="userSpaceOnUse"><stop offset="0" stop-color="#900"/><stop offset="1" stop-color="#e80000"/></linearGradient><linearGradient id="linear-gradient-3" x1="358.74" y1="378.5" x2="358.74" y2="643.97" gradientTransform="matrix(1, 0, 0, -1, 377, 751.5)" xlink:href="#linear-gradient"/><mask id="mask" x="380.48" y="105.36" width="711" height="270" maskUnits="userSpaceOnUse"/></defs><g id="Layer_2" data-name="Layer 2"><g id="Layer_1-2" data-name="Layer 1"><g id="logo-bg-dark"><rect id="bg" class="cls-1" width="1546" height="423"/><g id="test-tube"><path id="shadow" class="cls-2" d="M1126.89,53.73a4.51,4.51,0,0,0,0,1.94s2.07,13.71-.28,19.81l-99.67,259.17h0a37.09,37.09,0,0,0,69.23,26.62h0l99.67-259.18c2-5.07,13.06-14.89,13.06-14.89a4.55,4.55,0,0,0,1.29-1.46l0-.1.16-.33c2.57-6.68-14-19.28-37-28.13s-43.77-10.61-46.34-3.93a3.57,3.57,0,0,0-.1.35Z"/><path id="tube" class="cls-3" d="M1124,51.52a4.56,4.56,0,0,0,0,1.95s2.07,13.71-.28,19.81L1024,332.45h0a37.09,37.09,0,0,0,69.23,26.63h0L1193,99.91C1194.9,94.84,1206,85,1206,85a4.58,4.58,0,0,0,1.29-1.47l0-.1c.05-.1.11-.21.16-.32,2.57-6.68-14-19.28-37-28.13s-43.77-10.62-46.34-3.93c0,.11-.07.23-.1.34Z"/><path id="liquid" class="cls-4" d="M1155.28,168.77l-71.88,186.9,0,0a26.85,26.85,0,0,1-34.41,15.1c-13.69-5.26-21.1-21-16.06-34.51h0l45.93-119.43a53.06,53.06,0,0,1,17-15.83c11.27-6.59,20.55-5.2,33.06-10.76S1155.28,168.77,1155.28,168.77Z"/><ellipse id="top" class="cls-1" cx="1165.6" cy="67.8" rx="7.29" ry="27.72" transform="translate(683.89 1131.37) rotate(-68.96)"/><path id="side-reflection" class="cls-5" d="M1124,53.47s2,13.79-.28,19.81L1024,332.45h0a37.1,37.1,0,0,0,31.44,49.93,37.11,37.11,0,0,1-12.43-42.61h0l97.7-254A63,63,0,0,1,1124,53.47Z"/><g id="bubbles"><circle class="cls-6" cx="1091.89" cy="220.66" r="2.89"/><circle class="cls-6" cx="1110.82" cy="241.6" r="4.35"/><circle class="cls-6" cx="1081.92" cy="266.5" r="8.17"/><circle class="cls-6" cx="1068.7" cy="281.6" r="4.35"/><circle class="cls-6" cx="1086.04" cy="313.9" r="2.89"/></g></g><g id="jekyll-text"><g class="cls-7"><path d="M577.86,204.73c4.42,3.53,12.36,1.47,17.66-4.41,5.59-6.18,6.48-14.12,2.06-17.65s-12.36-1.47-17.66,4.71C574.33,193.55,573.45,201.2,577.86,204.73Zm-13,11.47c-1.17,0-3.23,2.06-1.47,2.94,2.35.88,3.53,2.94,3.53,5.88-2.06,12.06-17.07,25.88-23,30.58-1.48,1.47.58,4.71,2.06,3.53,3.23-2.65,10-7.94,15.6-15-9.13,20.29-26.79,46.46-33.56,55.58-26.49,36.76-66.81,70.57-94.47,70.57-22.08,0-40.92-15-45-37-.29-2.35-3.53-2.94-2.94.3,5,30.28,28.26,42.05,56.51,42.05,30.91,0,67.18-22.4,87.13-45.31,32.28-37.08,53.26-79.67,47.67-103.78C574.63,217.37,568.44,215.9,564.91,216.2Zm198.58,80.63c8.54-2.06,15.6-6.84,15.6-14.22,0-.74-1.47-.74-1.47,0,0,4.43-5,8-10.6,8.92-13.24,2.06-39.44-13.47-51.8-29.35,13.25,5,40.32-2.32,53-11.44,11.77-8.53,16.48-17.92,17.37-25.57,1.47-12.65-12.37-20-31.5-12.64-12.36,5-27.07,15.88-42.38,36.17,16.19-26.75,48-70.27,79.17-98.21,38-33.82,60-27.35,25.9,8.53-14.12,14.7-40.61,33.82-58.86,42-5.59,2.35-2.94,5.59,1.18,3.82C778.5,196.37,804.4,178.72,820,164c46.21-44.4,7.65-77.93-43.56-30.88-34.73,32.06-57.39,65.58-77.11,109.1-6.77,8.23-11.77,15-18,20.29a15.31,15.31,0,0,0-1.79,1.87c-17,14.56-43.68,34.23-60.26,34.46-11.77.3-16.77-8.52-14.71-20,3.23-17.94,21.78-39.11,37.67-46.46,20.6-9.41,32.67,8.82,5.59,23.52-10.3,5.29-22.66,8.23-27.67,8.23-5.88,0-5.29,2.36-.29,2.65,8.24.29,21.49-3.24,30.32-7.35,27.66-13.24,29.43-37.94-.59-38.82-32.67-1.18-71.82,26.76-71.52,61.75.29,15.88,13,24.41,30.31,24.41,28.88-.26,54.71-22.28,75.83-41.64,3-2.52,6-5.3,8.89-8.22-7.36,18.82-11.19,36.17-9.42,49.11,1.18,9.41,6.47,13.82,10.59,17.35.89.59,2.65,0,1.48-1.77-6.19-7.35-4.42-29.16,4.12-50.34C707,285.41,734.65,303.3,763.49,296.83Zm-34.73-61.36c33.85-30.28,47.09-3.23,25.61,13.24-11.19,8.52-33.26,15-40.32,10.88l-1.48-.88a33.26,33.26,0,0,1-2.35-4.42A188.23,188.23,0,0,1,728.76,235.47Zm187.86-34.32c13.53,1.47,7.94-15-5.89-10.88-6.18,1.77-12.07,13.53-16.48,23.82-13.54,20.29-36.2,47.93-52.1,62.34C828,288.49,815.07,291.72,831,269.08c6.47-9.11,14.71-18.82,19.42-28.52,11.19-24.41-12.65-35.29-31.78-20.59-11.19,8.53-26.2,26.17-38,35.88-3.24,2.64-2.36,6.47.88,3.82,9.42-7.64,25.9-25,40-35.29,11.77-9.11,16.48-3.23,9.71,4.41-9.42,10.89-25.9,29.7-30,41.76-5.89,17.94,1.18,25.88,13,25.88,16.19,0,40.32-25.29,56.51-45.29,5.3-6.76,11.19-14.7,16.19-22.35-14.13,27.35-28.84,55-47.09,80-25.9,35.29-58.28,61.75-88.89,61.75-22.07,0-41.2-15-45.32-37-.3-2.35-3.24-2.94-3,.29,5,30.29,28.26,42.05,56.51,42.05,30.91,0,60.63-17.93,81.53-40,42.09-44.4,47.09-94.39,60-122.33C906.61,201.15,912.2,200.57,916.62,201.15Zm171.09-42.81c6.18-10.59,5.88-18.82-8.54-18.82-10.89.29-30.61,7.94-39.73,15-2.06,2-1.18,3.23,1.47,2,1.77-.58,3.83-1.76,5.89-2.64,10.3-5.59,6.18,6.17,3.82,10.58-12.36,21.47-34.14,51.76-45.62,66.76a235.78,235.78,0,0,1-17.66,21c-11.06,10.49-32.89,29.07-49.4,35.32-53.57,20,14.71-71.16,20.3-78.52,12.66-15.88,40.92-43.52,49.45-57.34,6.18-10.58,5.89-18.82-8.53-18.82-10.9.3-30.61,7.94-39.74,15-2.06,2.06-1.18,3.23,1.47,2.06,1.77-.59,3.83-1.77,5.89-2.65,10.3-5.59,6.18,6.18,3.83,10.59-12.36,21.46-34.15,51.75-45.62,66.75-9.42,12.64-20.9,25.29-29.73,32.35-3.53,2.94-1.47,5.58,2.06,3.23,3.24-2.06,7.95-6.76,13.24-12.35-9.71,19.41-17.65,46.76,8,50,21.82,3,47.77-19.29,64.54-35.78,1.85-1.75,3.88-3.8,6-6l1.47-1.51c-9.69,19.41-17.58,46.69,8,49.92,28,3.82,62.69-33.82,76.23-47.64,2.65-2.65,1.76-7.06-2.65-2.65-7.95,8.24-34.73,32.64-54.16,40-53.56,20,14.72-71.16,20.31-78.51C1050.92,199.8,1079.17,172.16,1087.71,158.34Z"/></g><path class="cls-8" d="M575,201.9c4.41,3.53,12.36,1.47,17.66-4.41,5.59-6.17,6.47-14.11,2.06-17.64s-12.37-1.47-17.66,4.7C571.5,190.73,570.62,198.37,575,201.9Zm-12.95,11.47c-1.18,0-3.24,2.06-1.48,2.94,2.36.88,3.54,2.94,3.54,5.88-2.06,12.06-17.07,25.88-23,30.58-1.47,1.47.59,4.71,2.06,3.53,3.24-2.64,10-7.94,15.6-15-9.13,20.29-26.79,46.46-33.55,55.57-26.49,36.76-66.82,70.58-94.48,70.58-22.08,0-40.91-15-45-37-.3-2.36-3.53-2.94-3,.29,5,30.29,28.26,42.05,56.51,42.05,30.91,0,67.18-22.39,87.13-45.31,32.28-37.07,53.27-79.67,47.67-103.78C571.8,214.55,565.62,213.08,562.09,213.37ZM760.66,294c8.54-2.06,15.6-6.83,15.6-14.22,0-.74-1.47-.74-1.47,0,0,4.43-5,8.05-10.59,8.93-13.25,2.06-39.44-13.48-51.8-29.36,13.24,5,40.32-2.32,53-11.44,11.78-8.52,16.49-17.92,17.37-25.57,1.47-12.64-12.36-20-31.49-12.63-12.37,5-27.08,15.88-42.39,36.17,16.19-26.76,48-70.28,79.18-98.22,38-33.81,60-27.34,25.9,8.53-14.13,14.71-40.62,33.82-58.87,42.05-5.59,2.36-2.94,5.59,1.18,3.83,19.42-8.53,45.32-26.18,60.92-40.88,46.21-44.4,7.66-77.92-43.56-30.87-34.73,32.05-57.39,65.57-77.11,109.09-6.77,8.24-11.77,15-18,20.29a15.41,15.41,0,0,0-1.8,1.87c-17,14.57-43.67,34.23-60.25,34.47-11.78.29-16.78-8.53-14.72-20,3.24-17.94,21.78-39.11,37.67-46.46,20.61-9.41,32.67,8.82,5.59,23.52-10.3,5.3-22.66,8.24-27.66,8.24-5.89,0-5.3,2.35-.3,2.64,8.25.3,21.49-3.23,30.32-7.35,27.67-13.23,29.43-37.93-.59-38.82-32.67-1.17-71.81,26.76-71.52,61.76.29,15.88,13,24.4,30.32,24.4,28.87-.26,54.7-22.28,75.82-41.64,3-2.52,6-5.29,8.89-8.22-7.36,18.82-11.18,36.17-9.42,49.11,1.18,9.41,6.48,13.82,10.6,17.35.88.59,2.65,0,1.47-1.76-6.18-7.36-4.42-29.17,4.12-50.34C704.15,282.59,731.82,300.47,760.66,294Zm-34.72-61.35c33.84-30.29,47.09-3.24,25.6,13.23-11.18,8.53-33.26,15-40.32,10.88l-1.47-.88a31.56,31.56,0,0,1-2.36-4.41A186.21,186.21,0,0,1,725.94,232.65Zm187.85-34.32c13.54,1.47,8-15-5.89-10.88-6.18,1.76-12.06,13.52-16.48,23.82-13.54,20.29-36.2,47.93-52.09,62.34-14.13,12.05-27.08,15.29-11.19-7.35,6.48-9.12,14.72-18.82,19.43-28.53,11.18-24.4-12.66-35.28-31.79-20.58-11.18,8.53-26.19,26.17-38,35.87-3.24,2.65-2.35,6.47.89,3.83,9.41-7.65,25.9-25,40-35.29,11.78-9.12,16.48-3.24,9.72,4.41-9.42,10.88-25.9,29.7-30,41.76-5.88,17.93,1.18,25.87,13,25.87,16.19,0,40.33-25.29,56.51-45.28,5.3-6.77,11.19-14.7,16.19-22.35-14.13,27.35-28.84,55-47.09,80-25.9,35.29-58.28,61.76-88.89,61.76-22.07,0-41.2-15-45.32-37.06-.3-2.35-3.24-2.94-2.94.3,5,30.29,28.25,42.05,56.51,42.05,30.9,0,60.63-17.94,81.52-40,42.09-44.41,47.09-94.4,60-122.33C903.78,198.33,909.37,197.74,913.79,198.33Zm171.09-42.82c6.18-10.58,5.88-18.82-8.54-18.82-10.89.3-30.61,7.94-39.73,15-2.06,2.06-1.18,3.23,1.47,2.06,1.77-.59,3.83-1.77,5.89-2.65,10.3-5.59,6.18,6.18,3.82,10.59-12.36,21.46-34.14,51.75-45.62,66.75a232.61,232.61,0,0,1-17.66,21c-11.06,10.48-32.89,29.06-49.4,35.31-53.57,20,14.71-71.16,20.31-78.51,12.65-15.88,40.91-43.52,49.44-57.35,6.18-10.58,5.89-18.82-8.53-18.82-10.89.3-30.61,7.94-39.74,15-2.06,2.06-1.17,3.24,1.48,2.06,1.76-.59,3.82-1.76,5.88-2.65,10.3-5.58,6.18,6.18,3.83,10.59-12.36,21.47-34.14,51.75-45.62,66.75-9.42,12.65-20.9,25.29-29.73,32.35-3.53,2.94-1.47,5.59,2.06,3.23,3.24-2.06,8-6.76,13.25-12.35-9.72,19.41-17.66,46.76,7.94,50,21.82,3,47.77-19.28,64.54-35.78,1.85-1.75,3.88-3.8,6-6,.51-.51,1-1,1.48-1.51-9.7,19.41-17.59,46.69,8,49.92,28,3.82,62.69-33.82,76.23-47.64,2.65-2.65,1.77-7.06-2.65-2.65-7.94,8.24-34.73,32.65-54.15,40-53.57,20,14.71-71.17,20.31-78.52C1048.09,197,1076.34,169.33,1084.88,155.51Z"/><g class="cls-9"><g class="cls-10"><path class="cls-11" d="M575,201.9c4.41,3.53,12.36,1.47,17.66-4.41,5.59-6.17,6.47-14.11,2.06-17.64s-12.37-1.47-17.66,4.7C571.5,190.73,570.62,198.37,575,201.9Zm-12.95,11.47c-1.18,0-3.24,2.06-1.48,2.94,2.36.88,3.54,2.94,3.54,5.88-2.06,12.06-17.07,25.88-23,30.58-1.47,1.47.59,4.71,2.06,3.53,3.24-2.64,10-7.94,15.6-15-9.13,20.29-26.79,46.46-33.55,55.57-26.49,36.76-66.82,70.58-94.48,70.58-22.08,0-40.91-15-45-37-.3-2.36-3.53-2.94-3,.29,5,30.29,28.26,42.05,56.51,42.05,30.91,0,67.18-22.39,87.13-45.31,32.28-37.07,53.27-79.67,47.67-103.78C571.8,214.55,565.62,213.08,562.09,213.37ZM760.66,294c8.54-2.06,15.6-6.83,15.6-14.22,0-.74-1.47-.74-1.47,0,0,4.43-5,8.05-10.59,8.93-13.25,2.06-39.44-13.48-51.8-29.36,13.24,5,40.32-2.32,53-11.44,11.78-8.52,16.49-17.92,17.37-25.57,1.47-12.64-12.36-20-31.49-12.63-12.37,5-27.08,15.88-42.39,36.17,16.19-26.76,48-70.28,79.18-98.22,38-33.81,60-27.34,25.9,8.53-14.13,14.71-40.62,33.82-58.87,42.05-5.59,2.36-2.94,5.59,1.18,3.83,19.42-8.53,45.32-26.18,60.92-40.88,46.21-44.4,7.66-77.92-43.56-30.87-34.73,32.05-57.39,65.57-77.11,109.09-6.77,8.24-11.77,15-18,20.29a15.41,15.41,0,0,0-1.8,1.87c-17,14.57-43.67,34.23-60.25,34.47-11.78.29-16.78-8.53-14.72-20,3.24-17.94,21.78-39.11,37.67-46.46,20.61-9.41,32.67,8.82,5.59,23.52-10.3,5.3-22.66,8.24-27.66,8.24-5.89,0-5.3,2.35-.3,2.64,8.25.3,21.49-3.23,30.32-7.35,27.67-13.23,29.43-37.93-.59-38.82-32.67-1.17-71.81,26.76-71.52,61.76.29,15.88,13,24.4,30.32,24.4,28.87-.26,54.7-22.28,75.82-41.64,3-2.52,6-5.29,8.89-8.22-7.36,18.82-11.18,36.17-9.42,49.11,1.18,9.41,6.48,13.82,10.6,17.35.88.59,2.65,0,1.47-1.76-6.18-7.36-4.42-29.17,4.12-50.34C704.15,282.59,731.82,300.47,760.66,294Zm-34.72-61.35c33.84-30.29,47.09-3.24,25.6,13.23-11.18,8.53-33.26,15-40.32,10.88l-1.47-.88a31.56,31.56,0,0,1-2.36-4.41A186.21,186.21,0,0,1,725.94,232.65Zm187.85-34.32c13.54,1.47,8-15-5.89-10.88-6.18,1.76-12.06,13.52-16.48,23.82-13.54,20.29-36.2,47.93-52.09,62.34-14.13,12.05-27.08,15.29-11.19-7.35,6.48-9.12,14.72-18.82,19.43-28.53,11.18-24.4-12.66-35.28-31.79-20.58-11.18,8.53-26.19,26.17-38,35.87-3.24,2.65-2.35,6.47.89,3.83,9.41-7.65,25.9-25,40-35.29,11.78-9.12,16.48-3.24,9.72,4.41-9.42,10.88-25.9,29.7-30,41.76-5.88,17.93,1.18,25.87,13,25.87,16.19,0,40.33-25.29,56.51-45.28,5.3-6.77,11.19-14.7,16.19-22.35-14.13,27.35-28.84,55-47.09,80-25.9,35.29-58.28,61.76-88.89,61.76-22.07,0-41.2-15-45.32-37.06-.3-2.35-3.24-2.94-2.94.3,5,30.29,28.25,42.05,56.51,42.05,30.9,0,60.63-17.94,81.52-40,42.09-44.41,47.09-94.4,60-122.33C903.78,198.33,909.37,197.74,913.79,198.33Zm171.09-42.82c6.18-10.58,5.88-18.82-8.54-18.82-10.89.3-30.61,7.94-39.73,15-2.06,2.06-1.18,3.23,1.47,2.06,1.77-.59,3.83-1.77,5.89-2.65,10.3-5.59,6.18,6.18,3.82,10.59-12.36,21.46-34.14,51.75-45.62,66.75a232.61,232.61,0,0,1-17.66,21c-11.06,10.48-32.89,29.06-49.4,35.31-53.57,20,14.71-71.16,20.31-78.51,12.65-15.88,40.91-43.52,49.44-57.35,6.18-10.58,5.89-18.82-8.53-18.82-10.89.3-30.61,7.94-39.74,15-2.06,2.06-1.17,3.24,1.48,2.06,1.76-.59,3.82-1.76,5.88-2.65,10.3-5.58,6.18,6.18,3.83,10.59-12.36,21.47-34.14,51.75-45.62,66.75-9.42,12.65-20.9,25.29-29.73,32.35-3.53,2.94-1.47,5.59,2.06,3.23,3.24-2.06,8-6.76,13.25-12.35-9.72,19.41-17.66,46.76,7.94,50,21.82,3,47.77-19.28,64.54-35.78,1.85-1.75,3.88-3.8,6-6,.51-.51,1-1,1.48-1.51-9.7,19.41-17.59,46.69,8,49.92,28,3.82,62.69-33.82,76.23-47.64,2.65-2.65,1.77-7.06-2.65-2.65-7.94,8.24-34.73,32.65-54.15,40-53.57,20,14.71-71.17,20.31-78.52C1048.09,197,1076.34,169.33,1084.88,155.51Z"/></g></g><g id="highlight"><path class="cls-11" d="M986.24,255.25l-.41.43c-4.2,9.14-7.59,19.45-7.32,28,.3-9.43,4.53-20.6,9.2-29.94C987.24,254.23,986.75,254.74,986.24,255.25Z"/><path class="cls-11" d="M905.81,249.1c-4.2,9.14-7.59,19.44-7.32,28,.3-9.46,4.56-20.66,9.25-30Z"/><path class="cls-11" d="M1036.14,154.2c.14-.16.29-.33.47-.51,9.12-7.06,28.84-14.71,39.73-15,8.23,0,11.86,2.68,12.31,6.95.53-5.41-2.86-8.95-12.31-8.95-10.89.29-30.61,7.94-39.73,15C1035.2,153.1,1035.17,154.1,1036.14,154.2Z"/><path class="cls-11" d="M1069.28,251.38c-8,8.23-34.73,32.64-54.15,40-14.21,5.3-19.84,2.78-20.35-3.91-.47,8.15,4.81,11.71,20.35,5.91,19.42-7.35,46.2-31.76,54.15-40,2.15-2.15,3.45-2.2,3.93-1.39C1074,249.78,1072.65,248,1069.28,251.38Z"/><path class="cls-11" d="M892.43,256.2c8.83-7.06,20.31-19.7,29.73-32.35,11.48-15,33.26-45.28,45.62-66.75,1.33-2.49,3.22-7.33,2.76-10.06a26.67,26.67,0,0,1-2.76,8.06c-12.36,21.47-34.15,51.75-45.62,66.75-9.42,12.65-20.9,25.29-29.73,32.35-1.88,1.57-2.17,3-1.49,3.73A5.89,5.89,0,0,1,892.43,256.2Z"/><path class="cls-11" d="M956.13,147.62a5.21,5.21,0,0,1,.46-.52c9.13-7.06,28.85-14.7,39.74-15,8.22,0,11.85,2.68,12.3,6.95.53-5.42-2.85-8.95-12.3-8.95-10.89.29-30.61,7.93-39.74,15C955.18,146.51,955.15,147.51,956.13,147.62Z"/><path class="cls-11" d="M1047.79,163.69c1.33-2.5,3.23-7.33,2.77-10.06a26.5,26.5,0,0,1-2.77,8.06c-12.36,21.46-34.14,51.75-45.62,66.75a235.94,235.94,0,0,1-17.66,21c-11.06,10.48-32.89,29.06-49.4,35.31-14.21,5.3-19.84,2.79-20.35-3.91-.46,8.15,4.81,11.71,20.35,5.91,16.51-6.25,38.34-24.83,49.4-35.31a235.94,235.94,0,0,0,17.66-21C1013.65,215.44,1035.43,185.15,1047.79,163.69Z"/><path class="cls-11" d="M839.33,273.61c-8.89,7.58-17.31,11.67-18.37,8-1.29,6.73,8.23,2.62,18.37-6,15.89-14.41,38.55-42.05,52.09-62.34,4.42-10.3,10.3-22.06,16.48-23.82,7.62-2.27,12.73,1.71,13.53,5.49,1-4.14-4.52-10.17-13.53-7.49-6.18,1.76-12.06,13.52-16.48,23.82C877.88,231.56,855.22,259.2,839.33,273.61Z"/><path class="cls-11" d="M831.43,220.77a12.35,12.35,0,0,1-3,5.2c-9.42,10.88-25.9,29.7-30,41.76a35.88,35.88,0,0,0-2.09,12.38,39.52,39.52,0,0,1,2.09-10.38c4.12-12.06,20.61-30.88,30-41.76C831,225.08,831.91,222.45,831.43,220.77Z"/><path class="cls-11" d="M777.81,255c11.78-9.7,26.79-27.35,38-35.87,15.42-11.85,33.89-7.08,34.62,8,.87-16.64-18.54-22.36-34.62-10-11.18,8.52-26.19,26.17-38,35.87-1.91,1.56-2.38,3.53-1.78,4.34A5.84,5.84,0,0,1,777.81,255Z"/><path class="cls-11" d="M699.94,331.58c.55-1.6,2.58-.86,2.82,1.07,4.12,22.06,23.25,37.06,45.33,37.06,30.6,0,63-26.47,88.88-61.76,18.25-25,33-52.63,47.09-80-1.41,2.15-2.89,4.33-4.41,6.5C866.85,259,853.33,283.55,837,306c-25.9,35.29-58.27,61.76-88.88,61.76-22.08,0-41.21-15-45.33-37.06-.29-2.35-3.24-2.94-2.94.3C699.85,331.16,699.9,331.37,699.94,331.58Z"/><path class="cls-11" d="M645.05,253.1c-10.3,5.3-22.67,8.24-27.67,8.24-4.7,0-5.26,1.49-2.76,2.25a12.35,12.35,0,0,1,2.76-.25c5,0,17.37-2.94,27.67-8.24,11.91-6.46,16.24-13.61,15.61-18.79C660.1,241.24,655.49,247.43,645.05,253.1Z"/><path class="cls-11" d="M689.1,257.32c-5.54,14.86-8.75,28.67-8.6,40,.25-11.73,3.88-26,9.82-41.17C689.92,256.52,689.51,256.92,689.1,257.32Z"/><path class="cls-11" d="M601.36,281.88c-.39,9.53,4.72,16.42,15.14,16.16,16.58-.24,43.26-19.9,60.26-34.47a14.58,14.58,0,0,1,1.79-1.87c6.18-5.29,11.18-12,18-20.29,19.72-43.52,42.39-77,77.12-109.09,34.49-31.69,63.23-26.83,64.21-6.71.87-21.76-28.61-28-64.21,4.71-34.73,32.05-57.4,65.57-77.12,109.09-6.77,8.24-11.77,15-18,20.29a15.27,15.27,0,0,0-1.79,1.87c-17,14.57-43.68,34.23-60.26,34.47C606.82,296.28,601.73,290.36,601.36,281.88Z"/><path class="cls-11" d="M755.07,198.24c-3.23,1.36-3.7,3-2.74,3.82a7,7,0,0,1,2.74-1.82c18.25-8.23,44.74-27.34,58.87-42.05,12.64-13.29,17.57-22.54,16.84-27.2-.65,5.08-5.8,13.6-16.84,25.2C799.81,170.9,773.32,190,755.07,198.24Z"/><path class="cls-11" d="M751.54,247.88c7.57-5.8,10.82-12.91,10.39-18.37-.4,5.13-3.72,11.26-10.39,16.37-11.18,8.53-33.26,15-40.32,10.88l-1.47-.88c-.63-1-1.24-2.07-1.76-3.11l-.6.7a31.56,31.56,0,0,0,2.36,4.41l1.47.88C718.28,262.88,740.36,256.41,751.54,247.88Z"/><path class="cls-11" d="M775,279c0,5-5,8.25-10.6,9.14-12.49,1.94-36.51-11.67-49.57-26.57a21.4,21.4,0,0,1-2.23-.63c12.37,15.88,38.56,31.44,51.8,29.38,5.6-.88,10.6-4.48,10.6-8.92,0-.6,1-.9,1.33-.52a10.16,10.16,0,0,0,.14-1.88Z"/><path class="cls-11" d="M646.81,219.82c14.17.41,21.25,6.14,21.88,13.46.57-8.25-6.44-15-21.88-15.46-32.67-1.18-71.81,26.76-71.52,61.75,0,.12,0,.23,0,.35C576.23,245.7,614.66,218.66,646.81,219.82Z"/><path class="cls-11" d="M751.25,209.71c-10.78,4.35-23.34,13.18-36.52,28.81-2.13,3.29-4.09,6.43-5.87,9.36,15.31-20.29,30-31.18,42.39-36.18,17.67-6.79,30.81-1,31.55,9.85C783.61,209.4,770,202.51,751.25,209.71Z"/><path class="cls-11" d="M689.31,305c-.12,6.95,1,12.51,3.55,15.62.51-.25.77-.87.11-1.85C690.63,316,689.43,311.15,689.31,305Z"/><path class="cls-11" d="M560.48,216.23a2.53,2.53,0,0,1,1.61-.86c3.53-.29,9.71,1.18,12.06,10.29a36.48,36.48,0,0,1,.88,7.21,38.07,38.07,0,0,0-.88-9.21c-2.35-9.11-8.53-10.58-12.06-10.29C560.94,213.37,559,215.31,560.48,216.23Z"/><path class="cls-11" d="M382.93,331.15c.57-1.35,2.63-.6,2.86,1.26,4.12,22,22.95,37,45,37,27.67,0,68-33.82,94.48-70.58,6.77-9.11,24.42-35.28,33.55-55.57-.7.88-1.42,1.74-2.15,2.57-9.52,19.48-25.13,42.56-31.4,51-26.49,36.76-66.82,70.58-94.48,70.58-22.08,0-40.91-15-45-37-.3-2.36-3.53-2.94-3,.29Z"/><path class="cls-11" d="M541.19,254.77c5.89-4.7,20.9-18.52,23-30.58a9.16,9.16,0,0,0-.12-1.42c-2.43,11.92-17,25.37-22.84,30a2.12,2.12,0,0,0-.27,2.37A1.84,1.84,0,0,1,541.19,254.77Z"/><path class="cls-11" d="M577.1,186.55c5.29-6.17,13.24-8.23,17.66-4.7a7.68,7.68,0,0,1,2.75,5.41c.24-3-.64-5.73-2.75-7.41-4.42-3.53-12.37-1.47-17.66,4.7-3.53,3.9-5.18,8.38-4.81,12A17.74,17.74,0,0,1,577.1,186.55Z"/></g></g></g></g></g></svg>