<svg xmlns="http://www.w3.org/2000/svg" viewBox="0 0 1546 423"><defs><style>.cls-1{fill:#0091e2;}.cls-2{fill:#fff;}</style></defs><g id="Layer_2" data-name="Layer 2"><g id="Layer_1-2" data-name="Layer 1"><rect class="cls-1" width="1546" height="423"/><path class="cls-2" d="M745.56,157.85a9.29,9.29,0,0,0-9.61,9v46.9a52,52,0,0,0-73,8,52.58,52.58,0,0,0-11.4,32.58,51.88,51.88,0,0,0,103.75,1.79v-88.6a9.6,9.6,0,0,0-2.77-6.84,10.28,10.28,0,0,0-7-2.77M732.73,266.52a32.17,32.17,0,0,1-42.32,17.28,32.28,32.28,0,0,1,0-59.27,32.17,32.17,0,0,1,42.32,17.28,31.29,31.29,0,0,1,0,24.71m118.86-48.77a51.95,51.95,0,1,0,15.18,38.11v-1.77a51.53,51.53,0,0,0-3.88-19.71,49,49,0,0,0-11.3-16.63m-6,48.61a31.71,31.71,0,0,1-7,10.18,33.48,33.48,0,0,1-10.17,6.94,32.28,32.28,0,0,1-42.32-17.12,32.17,32.17,0,0,1,17.12-42.15,32.49,32.49,0,0,1,25.2,0,31.38,31.38,0,0,1,10.17,6.94,33.56,33.56,0,0,1,7,10.18,32.07,32.07,0,0,1,0,25m220.13-54.27a9.47,9.47,0,0,0-.81-3.71,12.78,12.78,0,0,0-2.1-3.07,10.45,10.45,0,0,0-3.07-2.1,9.65,9.65,0,0,0-3.71-.81,10,10,0,0,0-5.17,1.46L996,239.55V168.2a9.63,9.63,0,0,0-2.77-6.84A9.67,9.67,0,0,0,976.6,168V295.67a9.67,9.67,0,0,0,2.79,6.9,9.52,9.52,0,0,0,13.8,0,9.09,9.09,0,0,0,2.79-6.9v-33l11.14-7.27L1049.6,303a8.74,8.74,0,0,0,6.46,2.43,7.41,7.41,0,0,0,3.71-.81,9.56,9.56,0,0,0,3.07-2.1,12.78,12.78,0,0,0,2.1-3.07,9.47,9.47,0,0,0,.81-3.71,10,10,0,0,0-2.59-6.63l-39.4-44.41,38.44-25a8.25,8.25,0,0,0,3.71-7.59M905.54,231.85a32.38,32.38,0,0,1,10.34-6.94,33.61,33.61,0,0,1,12.59-2.58,32.44,32.44,0,0,1,11.15,1.93,34.34,34.34,0,0,1,9.85,6,9.91,9.91,0,0,0,6.3,2.1,8.68,8.68,0,0,0,6.94-2.75,9.88,9.88,0,0,0,2.75-6.94,9.19,9.19,0,0,0-3.39-7.27,48.49,48.49,0,0,0-33.6-12.44,51.53,51.53,0,1,0,33.44,90.61,9.67,9.67,0,0,0,3.06-7.11,9.21,9.21,0,0,0-8.88-9.53h-.64a10.27,10.27,0,0,0-6.14,1.94,30,30,0,0,1-20.84,7.92,30.77,30.77,0,0,1-12.59-2.59,34.05,34.05,0,0,1-10.34-6.94,32.32,32.32,0,0,1-.16-45.55c.16.33.16.33.16.16M1256,208.65a17.66,17.66,0,0,0-6.51-3.91,39.13,39.13,0,0,0-8.63-2,81.24,81.24,0,0,0-8.8-.49,49.15,49.15,0,0,0-17.43,3.1,53.26,53.26,0,0,0-15.14,8.47v-2a9.7,9.7,0,0,0-19.38,0v84.53a9.7,9.7,0,0,0,19.38,0V254.25a31.12,31.12,0,0,1,2.6-12.7,29.6,29.6,0,0,1,7-10.27,32.2,32.2,0,0,1,23-9.6,37.15,37.15,0,0,1,12.7,2.28,8.88,8.88,0,0,0,4.08,1,7.42,7.42,0,0,0,3.74-.81,9.59,9.59,0,0,0,3.1-2.12,10.26,10.26,0,0,0,2.11-3.09,9.67,9.67,0,0,0,.82-3.75,8.38,8.38,0,0,0-2.61-6.51m-89.45,25.79a52.46,52.46,0,0,0-47.65-31.66,51.44,51.44,0,1,0,33.6,90.45l.32-.33a7.56,7.56,0,0,0,2.1-2.42,9.79,9.79,0,0,0-2.42-13.57,9.52,9.52,0,0,0-11.79,1.14c-.33.32-1.3,1.13-1.3,1.29l-.16.16a30.05,30.05,0,0,1-20.35,7.11,32.23,32.23,0,0,1-19.38-6.3,29.82,29.82,0,0,1-7.11-7.11,29.06,29.06,0,0,1-4.52-9.21h72.68a9.47,9.47,0,0,0,6.78-2.74,8.36,8.36,0,0,0,2.75-6.78,52.47,52.47,0,0,0-3.55-20m-78.66,10.17a27.35,27.35,0,0,1,4.52-9.2,29.82,29.82,0,0,1,7.11-7.11,37,37,0,0,1,9-4.68,32.76,32.76,0,0,1,20.35,0,32.67,32.67,0,0,1,20.83,21Zm135,46.95a6.7,6.7,0,1,0,6.79,6.78A6.68,6.68,0,0,0,1222.9,291.56Zm.64,11.2a5.28,5.28,0,0,1-5.48-5.81,5.26,5.26,0,0,1,10.49.31v.33a4.94,4.94,0,0,1-4.85,5.17Z"/><path class="cls-2" d="M1224.52,298.34a1.76,1.76,0,0,0,.64-3.07,5.17,5.17,0,0,0-2.26-.48,11.72,11.72,0,0,0-2.43.16v6.19h1.62v-3.23h.33c.81,1.08,1.29,1.4,1.45,2s.33,1.14.49,1.19H1226c-.32-.05-.48-.7-.48-1.19a1.53,1.53,0,0,0-1-1.61m-2.43-.43h0V296.3h.49c1-.38,1.45.1,1.45.59.17.64-.64,1.13-1.45,1M636.21,180.19c-1-.81-9.82-7.52-28.79-7.52A91.11,91.11,0,0,0,592.54,174c-3.6-25-24.37-37.13-25.19-37.78l-5.07-2.95L559,138a69.93,69.93,0,0,0-9,20.93c-3.43,14.23-1.3,27.64,5.89,39.09-8.67,4.91-22.73,6-25.68,6.22H298a11,11,0,0,0-11,10.95,165.49,165.49,0,0,0,10.14,59.7c8,20.94,20,36.47,35.33,46,17.34,10.63,45.63,16.68,77.52,16.68a238.39,238.39,0,0,0,43-3.92,177.49,177.49,0,0,0,56.26-20.45,154,154,0,0,0,38.27-31.4C566,261,577,237.76,585,217.16h3.28c20.11,0,32.54-8,39.41-14.89a43.46,43.46,0,0,0,10.47-15.37l1.47-4.25Z"/><path class="cls-2" d="M322,196.16h30.14a2.67,2.67,0,0,0,2.7-2.69V166.55a2.67,2.67,0,0,0-2.7-2.69H322a2.67,2.67,0,0,0-2.69,2.69v26.92A2.77,2.77,0,0,0,322,196.16Zm42.53,0h29.6a2.67,2.67,0,0,0,2.7-2.69V166.55a2.67,2.67,0,0,0-2.7-2.69H364a2.67,2.67,0,0,0-2.7,2.69v26.92a2.78,2.78,0,0,0,2.7,2.69m40.91-2.75a2.75,2.75,0,0,0,2.74,2.75h30.09a2.67,2.67,0,0,0,2.7-2.69V166.55a2.67,2.67,0,0,0-2.7-2.69H407.55a2.66,2.66,0,0,0-2.69,2.69Zm44.68,2.75h30.14a2.67,2.67,0,0,0,2.7-2.69V166.55a2.67,2.67,0,0,0-2.7-2.69H449.54a2.67,2.67,0,0,0-2.69,2.69v26.92A2.67,2.67,0,0,0,449.54,196.16ZM364.48,157.4H394a2.76,2.76,0,0,0,2.75-2.75V127.79a2.67,2.67,0,0,0-2.7-2.69H364a2.67,2.67,0,0,0-2.7,2.69v26.92a2.9,2.9,0,0,0,2.7,2.69m44.14,0h29.55a2.76,2.76,0,0,0,2.75-2.75V127.79a2.67,2.67,0,0,0-2.7-2.69H407.55a2.66,2.66,0,0,0-2.69,2.69v26.92a2.67,2.67,0,0,0,2.69,2.69m42.53,0h29.55a2.76,2.76,0,0,0,2.75-2.75V127.84a2.75,2.75,0,0,0-2.75-2.74H449.54a2.67,2.67,0,0,0-2.69,2.69v26.92a2.78,2.78,0,0,0,2.69,2.69m.54-38.76h29.6a2.68,2.68,0,0,0,2.7-2.7V89.08a2.76,2.76,0,0,0-2.75-2.75H449.54a2.67,2.67,0,0,0-2.69,2.7v26.91a2.78,2.78,0,0,0,2.69,2.7m44.15,77.52h29.6a2.67,2.67,0,0,0,2.7-2.69V166.55a2.67,2.67,0,0,0-2.7-2.69H493.15a2.66,2.66,0,0,0-2.69,2.69v26.92a2.76,2.76,0,0,0,2.69,2.69"/></g></g></svg>